<svg xmlns="http://www.w3.org/2000/svg" viewBox="0 0 260 260" role="img" aria-label="Professional faculty portrait">
  <rect width="260" height="260" rx="26" fill="#f5f3ff"/>
  <rect x="0" y="170" width="260" height="90" fill="#312e81"/>
  <circle cx="130" cy="96" r="44" fill="#efc09a"/>
  <path d="M87 92c0-28 19-48 43-48s43 20 43 48v10H87z" fill="#111827"/>
  <path d="M105 88a10 10 0 0 1 20 0" fill="none" stroke="#111827" stroke-width="8" stroke-linecap="round"/>
  <path d="M80 204c12-30 31-45 50-45s38 15 50 45" fill="#111827"/>
  <path d="M108 159l22 15 22-15v44h-44z" fill="#f9fafb"/>
  <path d="M130 175l10 14-10 23-10-23z" fill="#16a34a"/>
</svg>
